<svg version="1.1" xmlns="http://www.w3.org/2000/svg" xmlns:xlink="http://www.w3.org/1999/xlink" width="1259" height="456"><defs/><g><text fill="#eeeeee" stroke="none" font-family="Arial" font-size="24px" font-style="normal" font-weight="normal" text-decoration="none" x="0" y="0"></text><text fill="#eeeeee" stroke="none" font-family="Arial" font-size="24px" font-style="normal" font-weight="normal" text-decoration="none" x="0" y="30"></text><text fill="#eeeeee" stroke="none" font-family="Arial" font-size="24px" font-style="normal" font-weight="normal" text-decoration="none" x="0" y="60"></text><text fill="#eeeeee" stroke="none" font-family="Arial" font-size="24px" font-style="normal" font-weight="normal" text-decoration="none" x="0" y="90"></text><text fill="#eeeeee" stroke="none" font-family="Arial" font-size="24px" font-style="normal" font-weight="normal" text-decoration="none" x="0" y="120"></text><text fill="#eeeeee" stroke="none" font-family="Arial" font-size="24px" font-style="normal" font-weight="normal" text-decoration="none" x="0" y="150"></text><text fill="#eeeeee" stroke="none" font-family="Arial" font-size="24px" font-style="normal" font-weight="normal" text-decoration="none" x="0" y="180"></text><text fill="#eeeeee" stroke="none" font-family="Arial" font-size="24px" font-style="normal" font-weight="normal" text-decoration="none" x="0" y="210"></text><text fill="#eeeeee" stroke="none" font-family="Arial" font-size="24px" font-style="normal" font-weight="normal" text-decoration="none" x="0" y="240"></text><text fill="#eeeeee" stroke="none" font-family="Arial" font-size="24px" font-style="normal" font-weight="normal" text-decoration="none" x="0" y="270"></text><text fill="#eeeeee" stroke="none" font-family="Arial" font-size="24px" font-style="normal" font-weight="normal" text-decoration="none" x="0" y="300"></text><text fill="#eeeeee" stroke="none" font-family="Arial" font-size="24px" font-style="normal" font-weight="normal" text-decoration="none" x="0" y="330"></text><text fill="#eeeeee" stroke="none" font-family="Arial" font-size="24px" font-style="normal" font-weight="normal" text-decoration="none" x="0" y="360"></text><text fill="#eeeeee" stroke="none" font-family="Arial" font-size="24px" font-style="normal" font-weight="normal" text-decoration="none" x="0" y="390"></text><text fill="#eeeeee" stroke="none" font-family="Arial" font-size="24px" font-style="normal" font-weight="normal" text-decoration="none" x="0" y="420"></text><text fill="#eeeeee" stroke="none" font-family="Arial" font-size="24px" font-style="normal" font-weight="normal" text-decoration="none" x="0" y="450"></text><text fill="#eeeeee" stroke="none" font-family="Arial" font-size="24px" font-style="normal" font-weight="normal" text-decoration="none" x="200" y="0"></text><text fill="#eeeeee" stroke="none" font-family="Arial" font-size="24px" font-style="normal" font-weight="normal" text-decoration="none" x="200" y="30"></text><text fill="#eeeeee" stroke="none" font-family="Arial" font-size="24px" font-style="normal" font-weight="normal" text-decoration="none" x="200" y="60"></text><text fill="#eeeeee" stroke="none" font-family="Arial" font-size="24px" font-style="normal" font-weight="normal" text-decoration="none" x="200" y="90"></text><text fill="#eeeeee" stroke="none" font-family="Arial" font-size="24px" font-style="normal" font-weight="normal" text-decoration="none" x="200" y="120"></text><text fill="#eeeeee" stroke="none" font-family="Arial" font-size="24px" font-style="normal" font-weight="normal" text-decoration="none" x="200" y="150"></text><text fill="#eeeeee" stroke="none" font-family="Arial" font-size="24px" font-style="normal" font-weight="normal" text-decoration="none" x="200" y="180"></text><text fill="#eeeeee" stroke="none" font-family="Arial" font-size="24px" font-style="normal" font-weight="normal" text-decoration="none" x="200" y="210"></text><text fill="#eeeeee" stroke="none" font-family="Arial" font-size="24px" font-style="normal" font-weight="normal" text-decoration="none" x="200" y="240"></text><text fill="#eeeeee" stroke="none" font-family="Arial" font-size="24px" font-style="normal" font-weight="normal" text-decoration="none" x="200" y="270"></text><text fill="#eeeeee" stroke="none" font-family="Arial" font-size="24px" font-style="normal" font-weight="normal" text-decoration="none" x="200" y="300"></text><text fill="#eeeeee" stroke="none" font-family="Arial" font-size="24px" font-style="normal" font-weight="normal" text-decoration="none" x="200" y="330"></text><text fill="#eeeeee" stroke="none" font-family="Arial" font-size="24px" font-style="normal" font-weight="normal" text-decoration="none" x="200" y="360"></text><text fill="#eeeeee" stroke="none" font-family="Arial" font-size="24px" font-style="normal" font-weight="normal" text-decoration="none" x="200" y="390"></text><text fill="#eeeeee" stroke="none" font-family="Arial" font-size="24px" font-style="normal" font-weight="normal" text-decoration="none" x="200" y="420"></text><text fill="#eeeeee" stroke="none" font-family="Arial" font-size="24px" font-style="normal" font-weight="normal" text-decoration="none" x="200" y="450"></text><text fill="#eeeeee" stroke="none" font-family="Arial" font-size="24px" font-style="normal" font-weight="normal" text-decoration="none" x="400" y="0"></text><text fill="#eeeeee" stroke="none" font-family="Arial" font-size="24px" font-style="normal" font-weight="normal" text-decoration="none" x="400" y="30"></text><text fill="#eeeeee" stroke="none" font-family="Arial" font-size="24px" font-style="normal" font-weight="normal" text-decoration="none" x="400" y="60"></text><text fill="#eeeeee" stroke="none" font-family="Arial" font-size="24px" font-style="normal" font-weight="normal" text-decoration="none" x="400" y="90"></text><text fill="#eeeeee" stroke="none" font-family="Arial" font-size="24px" font-style="normal" font-weight="normal" text-decoration="none" x="400" y="120"></text><text fill="#eeeeee" stroke="none" font-family="Arial" font-size="24px" font-style="normal" font-weight="normal" text-decoration="none" x="400" y="150"></text><text fill="#eeeeee" stroke="none" font-family="Arial" font-size="24px" font-style="normal" font-weight="normal" text-decoration="none" x="400" y="180"></text><text fill="#eeeeee" stroke="none" font-family="Arial" font-size="24px" font-style="normal" font-weight="normal" text-decoration="none" x="400" y="210"></text><text fill="#eeeeee" stroke="none" font-family="Arial" font-size="24px" font-style="normal" font-weight="normal" text-decoration="none" x="400" y="240"></text><text fill="#eeeeee" stroke="none" font-family="Arial" font-size="24px" font-style="normal" font-weight="normal" text-decoration="none" x="400" y="270"></text><text fill="#eeeeee" stroke="none" font-family="Arial" font-size="24px" font-style="normal" font-weight="normal" text-decoration="none" x="400" y="300"></text><text fill="#eeeeee" stroke="none" font-family="Arial" font-size="24px" font-style="normal" font-weight="normal" text-decoration="none" x="400" y="330"></text><text fill="#eeeeee" stroke="none" font-family="Arial" font-size="24px" font-style="normal" font-weight="normal" text-decoration="none" x="400" y="360"></text><text fill="#eeeeee" stroke="none" font-family="Arial" font-size="24px" font-style="normal" font-weight="normal" text-decoration="none" x="400" y="390"></text><text fill="#eeeeee" stroke="none" font-family="Arial" font-size="24px" font-style="normal" font-weight="normal" text-decoration="none" x="400" y="420"></text><text fill="#eeeeee" stroke="none" font-family="Arial" font-size="24px" font-style="normal" font-weight="normal" text-decoration="none" x="400" y="450"></text><text fill="#eeeeee" stroke="none" font-family="Arial" font-size="24px" font-style="normal" font-weight="normal" text-decoration="none" x="600" y="0"></text><text fill="#eeeeee" stroke="none" font-family="Arial" font-size="24px" font-style="normal" font-weight="normal" text-decoration="none" x="600" y="30"></text><text fill="#eeeeee" stroke="none" font-family="Arial" font-size="24px" font-style="normal" font-weight="normal" text-decoration="none" x="600" y="60"></text><text fill="#eeeeee" stroke="none" font-family="Arial" font-size="24px" font-style="normal" font-weight="normal" text-decoration="none" x="600" y="90"></text><text fill="#eeeeee" stroke="none" font-family="Arial" font-size="24px" font-style="normal" font-weight="normal" text-decoration="none" x="600" y="120"></text><text fill="#eeeeee" stroke="none" font-family="Arial" font-size="24px" font-style="normal" font-weight="normal" text-decoration="none" x="600" y="150"></text><text fill="#eeeeee" stroke="none" font-family="Arial" font-size="24px" font-style="normal" font-weight="normal" text-decoration="none" x="600" y="180"></text><text fill="#eeeeee" stroke="none" font-family="Arial" font-size="24px" font-style="normal" font-weight="normal" text-decoration="none" x="600" y="210"></text><text fill="#eeeeee" stroke="none" font-family="Arial" font-size="24px" font-style="normal" font-weight="normal" text-decoration="none" x="600" y="240"></text><text fill="#eeeeee" stroke="none" font-family="Arial" font-size="24px" font-style="normal" font-weight="normal" text-decoration="none" x="600" y="270"></text><text fill="#eeeeee" stroke="none" font-family="Arial" font-size="24px" font-style="normal" font-weight="normal" text-decoration="none" x="600" y="300"></text><text fill="#eeeeee" stroke="none" font-family="Arial" font-size="24px" font-style="normal" font-weight="normal" text-decoration="none" x="600" y="330"></text><text fill="#eeeeee" stroke="none" font-family="Arial" font-size="24px" font-style="normal" font-weight="normal" text-decoration="none" x="600" y="360"></text><text fill="#eeeeee" stroke="none" font-family="Arial" font-size="24px" font-style="normal" font-weight="normal" text-decoration="none" x="600" y="390"></text><text fill="#eeeeee" stroke="none" font-family="Arial" font-size="24px" font-style="normal" font-weight="normal" text-decoration="none" x="600" y="420"></text><text fill="#eeeeee" stroke="none" font-family="Arial" font-size="24px" font-style="normal" font-weight="normal" text-decoration="none" x="600" y="450"></text><text fill="#eeeeee" stroke="none" font-family="Arial" font-size="24px" font-style="normal" font-weight="normal" text-decoration="none" x="800" y="0"></text><text fill="#eeeeee" stroke="none" font-family="Arial" font-size="24px" font-style="normal" font-weight="normal" text-decoration="none" x="800" y="30"></text><text fill="#eeeeee" stroke="none" font-family="Arial" font-size="24px" font-style="normal" font-weight="normal" text-decoration="none" x="800" y="60"></text><text fill="#eeeeee" stroke="none" font-family="Arial" font-size="24px" font-style="normal" font-weight="normal" text-decoration="none" x="800" y="90"></text><text fill="#eeeeee" stroke="none" font-family="Arial" font-size="24px" font-style="normal" font-weight="normal" text-decoration="none" x="800" y="120"></text><text fill="#eeeeee" stroke="none" font-family="Arial" font-size="24px" font-style="normal" font-weight="normal" text-decoration="none" x="800" y="150"></text><text fill="#eeeeee" stroke="none" font-family="Arial" font-size="24px" font-style="normal" font-weight="normal" text-decoration="none" x="800" y="180"></text><text fill="#eeeeee" stroke="none" font-family="Arial" font-size="24px" font-style="normal" font-weight="normal" text-decoration="none" x="800" y="210"></text><text fill="#eeeeee" stroke="none" font-family="Arial" font-size="24px" font-style="normal" font-weight="normal" text-decoration="none" x="800" y="240"></text><text fill="#eeeeee" stroke="none" font-family="Arial" font-size="24px" font-style="normal" font-weight="normal" text-decoration="none" x="800" y="270"></text><text fill="#eeeeee" stroke="none" font-family="Arial" font-size="24px" font-style="normal" font-weight="normal" text-decoration="none" x="800" y="300"></text><text fill="#eeeeee" stroke="none" font-family="Arial" font-size="24px" font-style="normal" font-weight="normal" text-decoration="none" x="800" y="330"></text><text fill="#eeeeee" stroke="none" font-family="Arial" font-size="24px" font-style="normal" font-weight="normal" text-decoration="none" x="800" y="360"></text><text fill="#eeeeee" stroke="none" font-family="Arial" font-size="24px" font-style="normal" font-weight="normal" text-decoration="none" x="800" y="390"></text><text fill="#eeeeee" stroke="none" font-family="Arial" font-size="24px" font-style="normal" font-weight="normal" text-decoration="none" x="800" y="420"></text><text fill="#eeeeee" stroke="none" font-family="Arial" font-size="24px" font-style="normal" font-weight="normal" text-decoration="none" x="800" y="450"></text><text fill="#eeeeee" stroke="none" font-family="Arial" font-size="24px" font-style="normal" font-weight="normal" text-decoration="none" x="1000" y="0"></text><text fill="#eeeeee" stroke="none" font-family="Arial" font-size="24px" font-style="normal" font-weight="normal" text-decoration="none" x="1000" y="30"></text><text fill="#eeeeee" stroke="none" font-family="Arial" font-size="24px" font-style="normal" font-weight="normal" text-decoration="none" x="1000" y="60"></text><text fill="#eeeeee" stroke="none" font-family="Arial" font-size="24px" font-style="normal" font-weight="normal" text-decoration="none" x="1000" y="90"></text><text fill="#eeeeee" stroke="none" font-family="Arial" font-size="24px" font-style="normal" font-weight="normal" text-decoration="none" x="1000" y="120"></text><text fill="#eeeeee" stroke="none" font-family="Arial" font-size="24px" font-style="normal" font-weight="normal" text-decoration="none" x="1000" y="150"></text><text fill="#eeeeee" stroke="none" font-family="Arial" font-size="24px" font-style="normal" font-weight="normal" text-decoration="none" x="1000" y="180"></text><text fill="#eeeeee" stroke="none" font-family="Arial" font-size="24px" font-style="normal" font-weight="normal" text-decoration="none" x="1000" y="210"></text><text fill="#eeeeee" stroke="none" font-family="Arial" font-size="24px" font-style="normal" font-weight="normal" text-decoration="none" x="1000" y="240"></text><text fill="#eeeeee" stroke="none" font-family="Arial" font-size="24px" font-style="normal" font-weight="normal" text-decoration="none" x="1000" y="270"></text><text fill="#eeeeee" stroke="none" font-family="Arial" font-size="24px" font-style="normal" font-weight="normal" text-decoration="none" x="1000" y="300"></text><text fill="#eeeeee" stroke="none" font-family="Arial" font-size="24px" font-style="normal" font-weight="normal" text-decoration="none" x="1000" y="330"></text><text fill="#eeeeee" stroke="none" font-family="Arial" font-size="24px" font-style="normal" font-weight="normal" text-decoration="none" x="1000" y="360"></text><text fill="#eeeeee" stroke="none" font-family="Arial" font-size="24px" font-style="normal" font-weight="normal" text-decoration="none" x="1000" y="390"></text><text fill="#eeeeee" stroke="none" font-family="Arial" font-size="24px" font-style="normal" font-weight="normal" text-decoration="none" x="1000" y="420"></text><text fill="#eeeeee" stroke="none" font-family="Arial" font-size="24px" font-style="normal" font-weight="normal" text-decoration="none" x="1000" y="450"></text><text fill="#eeeeee" stroke="none" font-family="Arial" font-size="24px" font-style="normal" font-weight="normal" text-decoration="none" x="1200" y="0"></text><text fill="#eeeeee" stroke="none" font-family="Arial" font-size="24px" font-style="normal" font-weight="normal" text-decoration="none" x="1200" y="30"></text><text fill="#eeeeee" stroke="none" font-family="Arial" font-size="24px" font-style="normal" font-weight="normal" text-decoration="none" x="1200" y="60"></text><text fill="#eeeeee" stroke="none" font-family="Arial" font-size="24px" font-style="normal" font-weight="normal" text-decoration="none" x="1200" y="90"></text><text fill="#eeeeee" stroke="none" font-family="Arial" font-size="24px" font-style="normal" font-weight="normal" text-decoration="none" x="1200" y="120"></text><text fill="#eeeeee" stroke="none" font-family="Arial" font-size="24px" font-style="normal" font-weight="normal" text-decoration="none" x="1200" y="150"></text><text fill="#eeeeee" stroke="none" font-family="Arial" font-size="24px" font-style="normal" font-weight="normal" text-decoration="none" x="1200" y="180"></text><text fill="#eeeeee" stroke="none" font-family="Arial" font-size="24px" font-style="normal" font-weight="normal" text-decoration="none" x="1200" y="210"></text><text fill="#eeeeee" stroke="none" font-family="Arial" font-size="24px" font-style="normal" font-weight="normal" text-decoration="none" x="1200" y="240"></text><text fill="#eeeeee" stroke="none" font-family="Arial" font-size="24px" font-style="normal" font-weight="normal" text-decoration="none" x="1200" y="270"></text><text fill="#eeeeee" stroke="none" font-family="Arial" font-size="24px" font-style="normal" font-weight="normal" text-decoration="none" x="1200" y="300"></text><text fill="#eeeeee" stroke="none" font-family="Arial" font-size="24px" font-style="normal" font-weight="normal" text-decoration="none" x="1200" y="330"></text><text fill="#eeeeee" stroke="none" font-family="Arial" font-size="24px" font-style="normal" font-weight="normal" text-decoration="none" x="1200" y="360"></text><text fill="#eeeeee" stroke="none" font-family="Arial" font-size="24px" font-style="normal" font-weight="normal" text-decoration="none" x="1200" y="390"></text><text fill="#eeeeee" stroke="none" font-family="Arial" font-size="24px" font-style="normal" font-weight="normal" text-decoration="none" x="1200" y="420"></text><text fill="#eeeeee" stroke="none" font-family="Arial" font-size="24px" font-style="normal" font-weight="normal" text-decoration="none" x="1200" y="450"></text><g transform="translate(2,-158) scale(1,1)"><rect fill="#C0C0C0" stroke="none" x="519" y="319" width="168" height="120" opacity="0.2"/></g><g transform="translate(2,-158) scale(1,1)"><rect fill="#ffffff" stroke="none" x="512" y="312" width="168" height="120"/></g><g transform="translate(2,-158) scale(1,1)"><path fill="none" stroke="#000000" d="M 512 312 L 680 312 L 680 432 L 512 432 L 512 312 Z Z" stroke-miterlimit="10"/></g><g transform="translate(2,-158) scale(1,1)"><g><path fill="none" stroke="none"/><text fill="#000000" stroke="none" font-family="Arial" font-size="13px" font-style="normal" font-weight="normal" text-decoration="none" x="541.813232421875" y="328">«software system»</text></g></g><g transform="translate(2,-158) scale(1,1)"><g><path fill="none" stroke="none"/><text fill="#000000" stroke="none" font-family="Arial" font-size="13px" font-style="normal" font-weight="bold" text-decoration="none" x="537.5" y="343.5">图书馆自助借还系统</text></g></g><g transform="translate(2,-158) scale(1,1)"><path fill="#ffffff" stroke="none" d="M 40.04482794744318 388.23 C 40.04482794744318 382.027841696 45.01007091820682 377 51.135009765625 377 C 57.25994861304318 377 62.22519158380682 382.027841696 62.22519158380682 388.23 C 62.22519158380682 394.43215830400004 57.25994861304318 399.46 51.135009765625 399.46 C 45.01007091820682 399.46 40.04482794744318 394.43215830400004 40.04482794744318 388.23 Z"/></g><g transform="translate(2,-158) scale(1,1)"><path fill="none" stroke="#000000" d="M 40.04482794744318 388.23 C 40.04482794744318 382.027841696 45.01007091820682 377 51.135009765625 377 C 57.25994861304318 377 62.22519158380682 382.027841696 62.22519158380682 388.23 C 62.22519158380682 394.43215830400004 57.25994861304318 399.46 51.135009765625 399.46 C 45.01007091820682 399.46 40.04482794744318 394.43215830400004 40.04482794744318 388.23 Z" stroke-miterlimit="10"/></g><g transform="translate(2,-158) scale(1,1)"><path fill="none" stroke="#000000" d="M 51.135009765625 399.46 L 51.135009765625 421.54" stroke-miterlimit="10"/></g><g transform="translate(2,-158) scale(1,1)"><path fill="none" stroke="#000000" d="M 39.39246431107954 407.74 L 62.87755522017046 407.74" stroke-miterlimit="10"/></g><g transform="translate(2,-158) scale(1,1)"><path fill="none" stroke="#000000" d="M 51.135009765625 421.54 L 34.82591885653409 444" stroke-miterlimit="10"/></g><g transform="translate(2,-158) scale(1,1)"><path fill="none" stroke="#000000" d="M 51.135009765625 421.54 L 67.44410067471591 444" stroke-miterlimit="10"/></g><g transform="translate(2,-158) scale(1,1)"><g><path fill="none" stroke="none"/><text fill="#000000" stroke="none" font-family="Arial" font-size="13px" font-style="normal" font-weight="bold" text-decoration="none" x="38.135009765625" y="463.5">用户</text></g></g><g transform="translate(2,-158) scale(1,1)"><path fill="#ffffff" stroke="none" d="M 1192.4098181818183 300.23 C 1192.4098181818183 294.027841696 1197.3750611525818 289 1203.5 289 C 1209.6249388474182 289 1214.5901818181817 294.027841696 1214.5901818181817 300.23 C 1214.5901818181817 306.43215830400004 1209.6249388474182 311.46 1203.5 311.46 C 1197.3750611525818 311.46 1192.4098181818183 306.43215830400004 1192.4098181818183 300.23 Z"/></g><g transform="translate(2,-158) scale(1,1)"><path fill="none" stroke="#000000" d="M 1192.4098181818183 300.23 C 1192.4098181818183 294.027841696 1197.3750611525818 289 1203.5 289 C 1209.6249388474182 289 1214.5901818181817 294.027841696 1214.5901818181817 300.23 C 1214.5901818181817 306.43215830400004 1209.6249388474182 311.46 1203.5 311.46 C 1197.3750611525818 311.46 1192.4098181818183 306.43215830400004 1192.4098181818183 300.23 Z" stroke-miterlimit="10"/></g><g transform="translate(2,-158) scale(1,1)"><path fill="none" stroke="#000000" d="M 1203.5 311.46 L 1203.5 333.54" stroke-miterlimit="10"/></g><g transform="translate(2,-158) scale(1,1)"><path fill="none" stroke="#000000" d="M 1191.7574545454545 319.74 L 1215.2425454545455 319.74" stroke-miterlimit="10"/></g><g transform="translate(2,-158) scale(1,1)"><path fill="none" stroke="#000000" d="M 1203.5 333.54 L 1187.1909090909091 356" stroke-miterlimit="10"/></g><g transform="translate(2,-158) scale(1,1)"><path fill="none" stroke="#000000" d="M 1203.5 333.54 L 1219.8090909090909 356" stroke-miterlimit="10"/></g><g transform="translate(2,-158) scale(1,1)"><g><path fill="none" stroke="none"/><text fill="#000000" stroke="none" font-family="Arial" font-size="13px" font-style="normal" font-weight="bold" text-decoration="none" x="1164.5" y="375.5">系统维护人员</text></g></g><g transform="translate(2,-158) scale(1,1)"><rect fill="#C0C0C0" stroke="none" x="887" y="175" width="114.49169921875" height="44" opacity="0.2"/></g><g transform="translate(2,-158) scale(1,1)"><rect fill="#ffffff" stroke="none" x="880" y="168" width="114.49169921875" height="44"/></g><g transform="translate(2,-158) scale(1,1)"><path fill="none" stroke="#000000" d="M 880 168 L 994.49169921875 168 L 994.49169921875 212 L 880 212 L 880 168 Z Z" stroke-miterlimit="10"/></g><g transform="translate(2,-158) scale(1,1)"><g><path fill="none" stroke="none"/><text fill="#000000" stroke="none" font-family="Arial" font-size="13px" font-style="normal" font-weight="normal" text-decoration="none" x="884.5" y="184">«external system»</text></g></g><g transform="translate(2,-158) scale(1,1)"><g><path fill="none" stroke="none"/><text fill="#000000" stroke="none" font-family="Arial" font-size="13px" font-style="normal" font-weight="bold" text-decoration="none" x="904.745849609375" y="199.5">校人事系统</text></g></g><g transform="translate(2,-158) scale(1,1)"><rect fill="#C0C0C0" stroke="none" x="887" y="455" width="114.49169921875" height="44" opacity="0.2"/></g><g transform="translate(2,-158) scale(1,1)"><rect fill="#ffffff" stroke="none" x="880" y="448" width="114.49169921875" height="44"/></g><g transform="translate(2,-158) scale(1,1)"><path fill="none" stroke="#000000" d="M 880 448 L 994.49169921875 448 L 994.49169921875 492 L 880 492 L 880 448 Z Z" stroke-miterlimit="10"/></g><g transform="translate(2,-158) scale(1,1)"><g><path fill="none" stroke="none"/><text fill="#000000" stroke="none" font-family="Arial" font-size="13px" font-style="normal" font-weight="normal" text-decoration="none" x="884.5" y="464">«external system»</text></g></g><g transform="translate(2,-158) scale(1,1)"><g><path fill="none" stroke="none"/><text fill="#000000" stroke="none" font-family="Arial" font-size="13px" font-style="normal" font-weight="bold" text-decoration="none" x="904.745849609375" y="479.5">校园卡系统</text></g></g><g transform="translate(2,-158) scale(1,1)"><rect fill="#C0C0C0" stroke="none" x="887" y="567" width="114.49169921875" height="44" opacity="0.2"/></g><g transform="translate(2,-158) scale(1,1)"><rect fill="#ffffff" stroke="none" x="880" y="560" width="114.49169921875" height="44"/></g><g transform="translate(2,-158) scale(1,1)"><path fill="none" stroke="#000000" d="M 880 560 L 994.49169921875 560 L 994.49169921875 604 L 880 604 L 880 560 Z Z" stroke-miterlimit="10"/></g><g transform="translate(2,-158) scale(1,1)"><g><path fill="none" stroke="none"/><text fill="#000000" stroke="none" font-family="Arial" font-size="13px" font-style="normal" font-weight="normal" text-decoration="none" x="884.5" y="576">«external system»</text></g></g><g transform="translate(2,-158) scale(1,1)"><g><path fill="none" stroke="none"/><text fill="#000000" stroke="none" font-family="Arial" font-size="13px" font-style="normal" font-weight="bold" text-decoration="none" x="898.245849609375" y="591.5">短信发送系统</text></g></g><g transform="translate(2,-158) scale(1,1)"><rect fill="#C0C0C0" stroke="none" x="215" y="191" width="102.208984375" height="44" opacity="0.2"/></g><g transform="translate(2,-158) scale(1,1)"><rect fill="#ffffff" stroke="none" x="208" y="184" width="102.208984375" height="44"/></g><g transform="translate(2,-158) scale(1,1)"><path fill="none" stroke="#000000" d="M 208 184 L 310.208984375 184 L 310.208984375 228 L 208 228 L 208 184 Z Z" stroke-miterlimit="10"/></g><g transform="translate(2,-158) scale(1,1)"><g><path fill="none" stroke="none"/><text fill="#000000" stroke="none" font-family="Arial" font-size="13px" font-style="normal" font-weight="normal" text-decoration="none" x="212.5" y="200">«external timer»</text></g></g><g transform="translate(2,-158) scale(1,1)"><g><path fill="none" stroke="none"/><text fill="#000000" stroke="none" font-family="Arial" font-size="13px" font-style="normal" font-weight="bold" text-decoration="none" x="239.6044921875" y="215.5">计时器</text></g></g><g transform="translate(2,-158) scale(1,1)"><rect fill="#C0C0C0" stroke="none" x="863" y="319" width="165" height="44" opacity="0.2"/></g><g transform="translate(2,-158) scale(1,1)"><rect fill="#ffffff" stroke="none" x="856" y="312" width="165" height="44"/></g><g transform="translate(2,-158) scale(1,1)"><path fill="none" stroke="#000000" d="M 856 312 L 1021 312 L 1021 356 L 856 356 L 856 312 Z Z" stroke-miterlimit="10"/></g><g transform="translate(2,-158) scale(1,1)"><g><path fill="none" stroke="none"/><text fill="#000000" stroke="none" font-family="Arial" font-size="13px" font-style="normal" font-weight="normal" text-decoration="none" x="893.695068359375" y="328">«external user»</text></g></g><g transform="translate(2,-158) scale(1,1)"><g><path fill="none" stroke="none"/><text fill="#000000" stroke="none" font-family="Arial" font-size="13px" font-style="normal" font-weight="bold" text-decoration="none" x="865.194091796875" y="343.5">系统维护人员键盘/显示器</text></g></g><g transform="translate(2,-158) scale(1,1)"><rect fill="#C0C0C0" stroke="none" x="199" y="415" width="142.70068359375" height="44" opacity="0.2"/></g><g transform="translate(2,-158) scale(1,1)"><rect fill="#ffffff" stroke="none" x="192" y="408" width="142.70068359375" height="44"/></g><g transform="translate(2,-158) scale(1,1)"><path fill="none" stroke="#000000" d="M 192 408 L 334.70068359375 408 L 334.70068359375 452 L 192 452 L 192 408 Z Z" stroke-miterlimit="10"/></g><g transform="translate(2,-158) scale(1,1)"><g><path fill="none" stroke="none"/><text fill="#000000" stroke="none" font-family="Arial" font-size="13px" font-style="normal" font-weight="normal" text-decoration="none" x="201.92724609375" y="424">«external I/O device»</text></g></g><g transform="translate(2,-158) scale(1,1)"><g><path fill="none" stroke="none"/><text fill="#000000" stroke="none" font-family="Arial" font-size="13px" font-style="normal" font-weight="bold" text-decoration="none" x="243.850341796875" y="439.5">读卡器</text></g></g><g transform="translate(2,-158) scale(1,1)"><rect fill="#C0C0C0" stroke="none" x="199" y="543" width="142.70068359375" height="44" opacity="0.2"/></g><g transform="translate(2,-158) scale(1,1)"><rect fill="#ffffff" stroke="none" x="192" y="536" width="142.70068359375" height="44"/></g><g transform="translate(2,-158) scale(1,1)"><path fill="none" stroke="#000000" d="M 192 536 L 334.70068359375 536 L 334.70068359375 580 L 192 580 L 192 536 Z Z" stroke-miterlimit="10"/></g><g transform="translate(2,-158) scale(1,1)"><g><path fill="none" stroke="none"/><text fill="#000000" stroke="none" font-family="Arial" font-size="13px" font-style="normal" font-weight="normal" text-decoration="none" x="196.5" y="552">«external input device»</text></g></g><g transform="translate(2,-158) scale(1,1)"><g><path fill="none" stroke="none"/><text fill="#000000" stroke="none" font-family="Arial" font-size="13px" font-style="normal" font-weight="bold" text-decoration="none" x="243.850341796875" y="567.5">扫描器</text></g></g><g transform="translate(2,-158) scale(1,1)"><rect fill="#C0C0C0" stroke="none" x="215" y="303" width="103.61181640625" height="44" opacity="0.2"/></g><g transform="translate(2,-158) scale(1,1)"><rect fill="#ffffff" stroke="none" x="208" y="296" width="103.61181640625" height="44"/></g><g transform="translate(2,-158) scale(1,1)"><path fill="none" stroke="#000000" d="M 208 296 L 311.61181640625 296 L 311.61181640625 340 L 208 340 L 208 296 Z Z" stroke-miterlimit="10"/></g><g transform="translate(2,-158) scale(1,1)"><g><path fill="none" stroke="none"/><text fill="#000000" stroke="none" font-family="Arial" font-size="13px" font-style="normal" font-weight="normal" text-decoration="none" x="215.0009765625" y="312">«external user»</text></g></g><g transform="translate(2,-158) scale(1,1)"><g><path fill="none" stroke="none"/><text fill="#000000" stroke="none" font-family="Arial" font-size="13px" font-style="normal" font-weight="bold" text-decoration="none" x="212.5" y="327.5">用户键盘/显示器</text></g></g><g transform="translate(2,-158) scale(1,1)"><path fill="none" stroke="#000000" d="M 95 401 L 213 341" stroke-miterlimit="10"/></g><g transform="translate(2,-158) scale(1,1)"><g><path fill="none" stroke="none"/><text fill="#000000" stroke="none" font-family="Arial" font-size="13px" font-style="normal" font-weight="normal" text-decoration="none" x="115.5" y="407">1</text></g></g><g transform="translate(2,-158) scale(1,1)"><g><path fill="none" stroke="none"/><text fill="#000000" stroke="none" font-family="Arial" font-size="13px" font-style="normal" font-weight="normal" text-decoration="none" x="195.5" y="366">1</text></g></g><g transform="translate(2,-158) scale(1,1)"><path fill="none" stroke="#000000" d="M 1022 334 L 1159 335" stroke-miterlimit="10"/></g><g transform="translate(2,-158) scale(1,1)"><g><path fill="none" stroke="none"/><text fill="#000000" stroke="none" font-family="Arial" font-size="13px" font-style="normal" font-weight="normal" text-decoration="none" x="1039.5" y="351">1</text></g></g><g transform="translate(2,-158) scale(1,1)"><g><path fill="none" stroke="none"/><text fill="#000000" stroke="none" font-family="Arial" font-size="13px" font-style="normal" font-weight="normal" text-decoration="none" x="1133.5" y="352">1</text></g></g><g transform="translate(2,-158) scale(1,1)"><path fill="none" stroke="#000000" d="M 95 424 L 191 428" stroke-miterlimit="10"/></g><g transform="translate(2,-158) scale(1,1)"><g><path fill="none" stroke="none"/><text fill="#000000" stroke="none" font-family="Arial" font-size="13px" font-style="normal" font-weight="normal" text-decoration="none" x="112.5" y="442">1</text></g></g><g transform="translate(2,-158) scale(1,1)"><g><path fill="none" stroke="none"/><text fill="#000000" stroke="none" font-family="Arial" font-size="13px" font-style="normal" font-weight="normal" text-decoration="none" x="175.5" y="444">1</text></g></g><g transform="translate(2,-158) scale(1,1)"><path fill="none" stroke="#000000" d="M 95 451 L 227 535" stroke-miterlimit="10"/></g><g transform="translate(2,-158) scale(1,1)"><g><path fill="none" stroke="none"/><text fill="#000000" stroke="none" font-family="Arial" font-size="13px" font-style="normal" font-weight="normal" text-decoration="none" x="102.5" y="478">1</text></g></g><g transform="translate(2,-158) scale(1,1)"><g><path fill="none" stroke="none"/><text fill="#000000" stroke="none" font-family="Arial" font-size="13px" font-style="normal" font-weight="normal" text-decoration="none" x="191.5" y="530">1</text></g></g><g transform="translate(2,-158) scale(1,1)"><path fill="none" stroke="#000000" d="M 306 229 L 511 330" stroke-miterlimit="10"/></g><g transform="translate(2,-158) scale(1,1)"><path fill="#000000" stroke="none" d="M 449.51171875 260 L 459.51171875 265 L 449.51171875 270"/></g><g transform="translate(2,-158) scale(1,1)"><g><path fill="none" stroke="none"/><text fill="#000000" stroke="none" font-family="Arial" font-size="13px" font-style="normal" font-weight="normal" text-decoration="none" x="382.5" y="270">+signals to</text></g></g><g transform="translate(2,-158) scale(1,1)"><g><path fill="none" stroke="none"/><text fill="#000000" stroke="none" font-family="Arial" font-size="13px" font-style="normal" font-weight="normal" text-decoration="none" x="315.5" y="254">1</text></g></g><g transform="translate(2,-158) scale(1,1)"><g><path fill="none" stroke="none"/><text fill="#000000" stroke="none" font-family="Arial" font-size="13px" font-style="normal" font-weight="normal" text-decoration="none" x="482.5" y="336">1</text></g></g><g transform="translate(2,-158) scale(1,1)"><path fill="none" stroke="#000000" d="M 313 327 L 511 358" stroke-miterlimit="10"/></g><g transform="translate(2,-158) scale(1,1)"><path fill="#000000" stroke="none" d="M 460.45263671875 322 L 470.45263671875 327 L 460.45263671875 332"/></g><g transform="translate(2,-158) scale(1,1)"><g><path fill="none" stroke="none"/><text fill="#000000" stroke="none" font-family="Arial" font-size="13px" font-style="normal" font-weight="normal" text-decoration="none" x="372.5" y="332">+interacts with</text></g></g><g transform="translate(2,-158) scale(1,1)"><g><path fill="none" stroke="none"/><text fill="#000000" stroke="none" font-family="Arial" font-size="13px" font-style="normal" font-weight="normal" text-decoration="none" x="322.5" y="347">1..*</text></g></g><g transform="translate(2,-158) scale(1,1)"><g><path fill="none" stroke="none"/><text fill="#000000" stroke="none" font-family="Arial" font-size="13px" font-style="normal" font-weight="normal" text-decoration="none" x="483.5" y="372">1</text></g></g><g transform="translate(2,-158) scale(1,1)"><path fill="none" stroke="#000000" d="M 336 417 L 511 387" stroke-miterlimit="10"/></g><g transform="translate(2,-158) scale(1,1)"><path fill="#000000" stroke="none" d="M 452.7353515625 382 L 462.7353515625 387 L 452.7353515625 392"/></g><g transform="translate(2,-158) scale(1,1)"><g><path fill="none" stroke="none"/><text fill="#000000" stroke="none" font-family="Arial" font-size="13px" font-style="normal" font-weight="normal" text-decoration="none" x="391.5" y="392">+inputs to</text></g></g><g transform="translate(2,-158) scale(1,1)"><path fill="none" stroke="#000000" d="M 511 387 L 336 417" stroke-miterlimit="10"/></g><g transform="translate(2,-158) scale(1,1)"><path fill="#000000" stroke="none" d="M 388 411 L 378 416 L 388 421"/></g><g transform="translate(2,-158) scale(1,1)"><g><path fill="none" stroke="none"/><text fill="#000000" stroke="none" font-family="Arial" font-size="13px" font-style="normal" font-weight="normal" text-decoration="none" x="392.5" y="420.5">+outputs to</text></g></g><g transform="translate(2,-158) scale(1,1)"><g><path fill="none" stroke="none"/><text fill="#000000" stroke="none" font-family="Arial" font-size="13px" font-style="normal" font-weight="normal" text-decoration="none" x="493.641357421875" y="403">1</text></g></g><g transform="translate(2,-158) scale(1,1)"><g><path fill="none" stroke="none"/><text fill="#000000" stroke="none" font-family="Arial" font-size="13px" font-style="normal" font-weight="normal" text-decoration="none" x="335.5" y="434">1..*</text></g></g><g transform="translate(2,-158) scale(1,1)"><path fill="none" stroke="#000000" d="M 304 535 L 511 419" stroke-miterlimit="10"/></g><g transform="translate(2,-158) scale(1,1)"><path fill="#000000" stroke="none" d="M 431.7353515625 458 L 441.7353515625 463 L 431.7353515625 468"/></g><g transform="translate(2,-158) scale(1,1)"><g><path fill="none" stroke="none"/><text fill="#000000" stroke="none" font-family="Arial" font-size="13px" font-style="normal" font-weight="normal" text-decoration="none" x="370.5" y="468">+inputs to</text></g></g><g transform="translate(2,-158) scale(1,1)"><g><path fill="none" stroke="none"/><text fill="#000000" stroke="none" font-family="Arial" font-size="13px" font-style="normal" font-weight="normal" text-decoration="none" x="335.5" y="531">1..*</text></g></g><g transform="translate(2,-158) scale(1,1)"><g><path fill="none" stroke="none"/><text fill="#000000" stroke="none" font-family="Arial" font-size="13px" font-style="normal" font-weight="normal" text-decoration="none" x="494.5" y="445">1</text></g></g><g transform="translate(2,-158) scale(1,1)"><path fill="none" stroke="#000000" d="M 681 327 L 894 213" stroke-miterlimit="10"/></g><g transform="translate(2,-158) scale(1,1)"><path fill="#000000" stroke="none" d="M 825.1298828125 232 L 835.1298828125 237 L 825.1298828125 242"/></g><g transform="translate(2,-158) scale(1,1)"><g><path fill="none" stroke="none"/><text fill="#000000" stroke="none" font-family="Arial" font-size="13px" font-style="normal" font-weight="normal" text-decoration="none" x="702.5" y="242">+communicates with</text></g></g><g transform="translate(2,-158) scale(1,1)"><g><path fill="none" stroke="none"/><text fill="#000000" stroke="none" font-family="Arial" font-size="13px" font-style="normal" font-weight="normal" text-decoration="none" x="701.5" y="332">1</text></g></g><g transform="translate(2,-158) scale(1,1)"><g><path fill="none" stroke="none"/><text fill="#000000" stroke="none" font-family="Arial" font-size="13px" font-style="normal" font-weight="normal" text-decoration="none" x="876.5" y="239">1</text></g></g><g transform="translate(2,-158) scale(1,1)"><path fill="none" stroke="#000000" d="M 681 396 L 879 453" stroke-miterlimit="10"/></g><g transform="translate(2,-158) scale(1,1)"><path fill="#000000" stroke="none" d="M 865.1298828125 401 L 875.1298828125 406 L 865.1298828125 411"/></g><g transform="translate(2,-158) scale(1,1)"><g><path fill="none" stroke="none"/><text fill="#000000" stroke="none" font-family="Arial" font-size="13px" font-style="normal" font-weight="normal" text-decoration="none" x="742.5" y="411">+communicates with</text></g></g><g transform="translate(2,-158) scale(1,1)"><g><path fill="none" stroke="none"/><text fill="#000000" stroke="none" font-family="Arial" font-size="13px" font-style="normal" font-weight="normal" text-decoration="none" x="694.5" y="419">1</text></g></g><g transform="translate(2,-158) scale(1,1)"><g><path fill="none" stroke="none"/><text fill="#000000" stroke="none" font-family="Arial" font-size="13px" font-style="normal" font-weight="normal" text-decoration="none" x="850.5" y="464">1</text></g></g><g transform="translate(2,-158) scale(1,1)"><path fill="none" stroke="#000000" d="M 681 424 L 900 559" stroke-miterlimit="10"/></g><g transform="translate(2,-158) scale(1,1)"><path fill="#000000" stroke="none" d="M 817.1298828125 521 L 827.1298828125 526 L 817.1298828125 531"/></g><g transform="translate(2,-158) scale(1,1)"><g><path fill="none" stroke="none"/><text fill="#000000" stroke="none" font-family="Arial" font-size="13px" font-style="normal" font-weight="normal" text-decoration="none" x="694.5" y="531">+communicates with</text></g></g><g transform="translate(2,-158) scale(1,1)"><g><path fill="none" stroke="none"/><text fill="#000000" stroke="none" font-family="Arial" font-size="13px" font-style="normal" font-weight="normal" text-decoration="none" x="688.5" y="451">1</text></g></g><g transform="translate(2,-158) scale(1,1)"><g><path fill="none" stroke="none"/><text fill="#000000" stroke="none" font-family="Arial" font-size="13px" font-style="normal" font-weight="normal" text-decoration="none" x="871.5" y="563">1</text></g></g><g transform="translate(2,-158) scale(1,1)"><path fill="none" stroke="#000000" d="M 855 343 L 681 363" stroke-miterlimit="10"/></g><g transform="translate(2,-158) scale(1,1)"><path fill="#000000" stroke="none" d="M 723 337 L 713 342 L 723 347"/></g><g transform="translate(2,-158) scale(1,1)"><g><path fill="none" stroke="none"/><text fill="#000000" stroke="none" font-family="Arial" font-size="13px" font-style="normal" font-weight="normal" text-decoration="none" x="727.5" y="347">+interacts with</text></g></g><g transform="translate(2,-158) scale(1,1)"><g><path fill="none" stroke="none"/><text fill="#000000" stroke="none" font-family="Arial" font-size="13px" font-style="normal" font-weight="normal" text-decoration="none" x="822.5" y="338">1..*</text></g></g><g transform="translate(2,-158) scale(1,1)"><g><path fill="none" stroke="none"/><text fill="#000000" stroke="none" font-family="Arial" font-size="13px" font-style="normal" font-weight="normal" text-decoration="none" x="697.5" y="353">1</text></g></g></g></svg>